<svg aria-hidden="true" style="position: absolute; width: 0; height: 0; overflow: hidden;" version="1.1" xmlns="http://www.w3.org/2000/svg" xmlns:xlink="http://www.w3.org/1999/xlink">
<defs>
<symbol id="icon-logo" viewBox="0 0 31 32">
<path fill="#e2e2e2" style="fill: var(--color1, #e2e2e2)" d="M0.005 0h30.55v32.005h-30.55z"></path>
<path fill="#fafafa" style="fill: var(--color2, #fafafa)" d="M-244.397-33.46h545.541v10532.571h-545.541z"></path>
<path fill="#fcf1e0" style="fill: var(--color3, #fcf1e0)" d="M3.77 19.894l10.288-16.635 0.611-0.643 7.863 5.24 0.054 3.164 1.92 3.131-8.478 13.439-12.258-7.697z"></path>
<path fill="none" stroke="#fd9222" style="stroke: var(--color4, #fd9222)" stroke-linejoin="round" stroke-linecap="round" stroke-miterlimit="4" stroke-width="2.6182" d="M20.66 23.525l-13.544-8.462M10.852 8.937l13.543 8.462M10.152 25.419l11.206-18.378M25.951 14.846c-2.902-1.811-4.043-3.23-2.175-6.292l-9.19-5.742-11.206 18.377 13.544 8.462 9.024-14.805z"></path>
</symbol>
<symbol id="icon-adv-chocolate" viewBox="0 0 32 32">
<path d="M13.604 0.456l8.308 8.318 0.088-0.088c0.17-0.167 0.404-0.27 0.661-0.27 0.25 0 0.477 0.097 0.646 0.256l-0-0 0.964 0.964c0.337 0.337 0.348 0.85 0.092 1.207l-0.004 0.008-0.158 0.212 6.799 6.799c0.607 0.607 0.607 1.578 0 2.185l-10.408 10.408c-0.607 0.607-1.578 0.607-2.185 0l-4.908-4.908c-0.171 0.215-0.434 0.352-0.728 0.352-0.257 0-0.49-0.105-0.658-0.274l-2.87-2.87c-0.167-0.17-0.27-0.404-0.27-0.661 0-0.25 0.097-0.477 0.256-0.646l-0 0 0.007-0.008 0.085-0.084-8.308-8.308c-0.607-0.607-0.607-1.578 0-2.185l10.408-10.408c0.607-0.607 1.578-0.607 2.185 0v0.001zM20.868 9.815l-1.938-1.937c-0.119-0.122-0.285-0.199-0.469-0.199s-0.35 0.076-0.469 0.198l-3.951 3.951c-0.122 0.121-0.198 0.289-0.198 0.475s0.076 0.353 0.198 0.475l1.93 1.93 0.673-0.673-1.727-1.727 3.543-3.554 1.732 1.737 0.677-0.677zM15.266 15.413l-1.936-1.936c-0.119-0.123-0.285-0.199-0.469-0.199s-0.35 0.076-0.469 0.198l-3.962 3.962c-0.265 0.254-0.265 0.673 0 0.938l1.934 1.934 0.68-0.68-1.733-1.726 3.554-3.543 1.726 1.725 0.675-0.674zM8.085 6.835l3.951 3.951c0.265 0.265 0.684 0.265 0.938-0.011l3.951-3.951c0.122-0.117 0.199-0.281 0.199-0.463 0-0 0-0 0-0v0h0.011c0-0.166-0.066-0.342-0.199-0.475l-3.951-3.951c-0.121-0.123-0.289-0.199-0.475-0.199s-0.354 0.076-0.475 0.198l-0 0-3.951 3.962c-0.265 0.254-0.265 0.673 0 0.938zM2.489 12.431l3.951 3.951c0.265 0.265 0.684 0.265 0.938 0l3.951-3.951c0.123-0.117 0.199-0.281 0.199-0.464 0-0.004-0-0.008-0-0.012v0.001h0.011c0-0.177-0.066-0.342-0.199-0.475l-3.951-3.951c-0.119-0.122-0.285-0.199-0.469-0.199s-0.35 0.076-0.469 0.198l-3.962 3.962c-0.265 0.254-0.265 0.673 0 0.938zM10.141 22.093l2.607 2.608 10.635-14.392-0.723-0.723-12.519 12.507z"></path>
<path d="M13.604 0.456l8.308 8.318 0.088-0.088c0.17-0.167 0.404-0.27 0.661-0.27 0.25 0 0.477 0.097 0.646 0.256l-0-0 0.964 0.964c0.337 0.337 0.348 0.85 0.092 1.207l-0.004 0.008-0.158 0.212 6.799 6.799c0.607 0.607 0.607 1.578 0 2.185l-10.408 10.408c-0.607 0.607-1.578 0.607-2.185 0l-4.908-4.908c-0.171 0.215-0.434 0.352-0.728 0.352-0.257 0-0.49-0.105-0.658-0.274l-2.87-2.87c-0.167-0.17-0.27-0.404-0.27-0.661 0-0.25 0.097-0.477 0.256-0.646l-0 0 0.007-0.008 0.085-0.084-8.308-8.308c-0.607-0.607-0.607-1.578 0-2.185l10.408-10.408c0.607-0.607 1.578-0.607 2.185 0v0.001zM20.868 9.815l-1.938-1.937c-0.119-0.122-0.285-0.199-0.469-0.199s-0.35 0.076-0.469 0.198l-3.951 3.951c-0.122 0.121-0.198 0.289-0.198 0.475s0.076 0.353 0.198 0.475l1.93 1.93 0.673-0.673-1.727-1.727 3.543-3.554 1.732 1.737 0.677-0.677zM15.266 15.413l-1.936-1.936c-0.119-0.123-0.285-0.199-0.469-0.199s-0.35 0.076-0.469 0.198l-3.962 3.962c-0.265 0.254-0.265 0.673 0 0.938l1.934 1.934 0.68-0.68-1.733-1.726 3.554-3.543 1.726 1.725 0.675-0.674zM8.085 6.835l3.951 3.951c0.265 0.265 0.684 0.265 0.938-0.011l3.951-3.951c0.122-0.117 0.199-0.281 0.199-0.463 0-0 0-0 0-0v0h0.011c0-0.166-0.066-0.342-0.199-0.475l-3.951-3.951c-0.121-0.123-0.289-0.199-0.475-0.199s-0.354 0.076-0.475 0.198l-0 0-3.951 3.962c-0.265 0.254-0.265 0.673 0 0.938zM2.489 12.431l3.951 3.951c0.265 0.265 0.684 0.265 0.938 0l3.951-3.951c0.123-0.117 0.199-0.281 0.199-0.464 0-0.004-0-0.008-0-0.012v0.001h0.011c0-0.177-0.066-0.342-0.199-0.475l-3.951-3.951c-0.119-0.122-0.285-0.199-0.469-0.199s-0.35 0.076-0.469 0.198l-3.962 3.962c-0.265 0.254-0.265 0.673 0 0.938zM10.141 22.093l2.607 2.608 10.635-14.392-0.723-0.723-12.519 12.507z"></path>
</symbol>
<symbol id="icon-close" viewBox="0 0 32 32">
<path stroke-linejoin="round" stroke-linecap="round" stroke-miterlimit="4" stroke-width="2.2857" d="M24.012 8.004l-16.008 16.008M8.004 8.004l16.008 16.008"></path>
</symbol>
<symbol id="icon-burger" viewBox="0 0 32 32">
<path stroke-linejoin="round" stroke-linecap="round" stroke-miterlimit="4" stroke-width="2.6667" d="M2.001 16.007h28.008M2.001 6.671h28.008M2.001 25.343h28.008"></path>
</symbol>
<symbol id="icon-dollar" viewBox="0 0 32 32">
<path d="M16.008 0.763c-8.385 0-15.245 6.861-15.245 15.245s6.861 15.245 15.245 15.245 15.245-6.861 15.245-15.245-6.861-15.245-15.245-15.245zM16.008 28.205c-6.708 0-12.197-5.488-12.197-12.197s5.488-12.197 12.197-12.197 12.197 5.488 12.197 12.197-5.488 12.197-12.197 12.197z"></path>
<path d="M17.989 14.484h-3.963c-0.763 0-1.372-0.611-1.372-1.372 0-0.763 0.609-1.372 1.372-1.372h5.641c0.915 0 1.524-0.611 1.524-1.525s-0.609-1.524-1.524-1.524h-2.135v-1.372c0-0.915-0.609-1.524-1.524-1.524s-1.524 0.609-1.524 1.524v1.372h-0.457c-2.441 0.002-4.42 1.98-4.422 4.421v0c0.003 2.441 1.981 4.419 4.421 4.42h3.811c0.763 0 1.372 0.611 1.372 1.372 0 0.763-0.609 1.372-1.372 1.372h-5.64c-0.915 0-1.525 0.611-1.525 1.525s0.611 1.524 1.525 1.524h2.287v1.372c0 0.915 0.609 1.524 1.524 1.524s1.524-0.609 1.524-1.524v-1.372h0.457c2.441-0.002 4.42-1.98 4.422-4.421v-0c-0.003-2.441-1.981-4.419-4.421-4.42h-0z"></path>
</symbol>
<symbol id="icon-instagram" viewBox="0 0 32 32">
<path stroke-linejoin="round" stroke-linecap="round" stroke-miterlimit="4" stroke-width="2.1818" d="M22.67 2.667h-13.334c-0 0-0.001 0-0.001 0-3.682 0-6.667 2.985-6.667 6.667 0 0.001 0 0.001 0 0.002v-0 13.334c0 0 0 0.001 0 0.001 0 3.682 2.985 6.667 6.667 6.667 0.001 0 0.001 0 0.002 0h13.334c0 0 0.001 0 0.001 0 3.682 0 6.667-2.985 6.667-6.667 0-0 0-0.001 0-0.002v0-13.334c0-0 0-0.001 0-0.001 0-3.682-2.985-6.667-6.667-6.667-0 0-0.001 0-0.002 0h0z"></path>
<path stroke-linejoin="round" stroke-linecap="round" stroke-miterlimit="4" stroke-width="2.1818" d="M21.337 15.162c0.037 0.235 0.058 0.506 0.058 0.783 0 2.946-2.389 5.335-5.335 5.335-2.67 0-4.882-1.962-5.273-4.523l-0.004-0.030c-0.037-0.235-0.058-0.506-0.058-0.782 0-2.946 2.388-5.335 5.335-5.335 2.67 0 4.883 1.962 5.273 4.523l0.004 0.030z"></path>
<path stroke-linejoin="round" stroke-linecap="round" stroke-miterlimit="4" stroke-width="2.1818" d="M21.337 15.162c0.037 0.235 0.058 0.506 0.058 0.783 0 2.946-2.389 5.335-5.335 5.335-2.67 0-4.882-1.962-5.273-4.523l-0.004-0.030c-0.037-0.235-0.058-0.506-0.058-0.782 0-2.946 2.388-5.335 5.335-5.335 2.67 0 4.883 1.962 5.273 4.523l0.004 0.030zM23.337 8.668h0.015M23.337 8.668h0.015"></path>
</symbol>
<symbol id="icon-scrol" viewBox="0 0 32 32">
<path d="M16.957 17.88c-0.242 0.243-0.577 0.394-0.947 0.394s-0.705-0.151-0.947-0.394l-0-0-6.112-6.124c-0.244-0.257-0.588-0.417-0.969-0.417-0.737 0-1.335 0.598-1.335 1.335 0 0.378 0.157 0.72 0.411 0.963l0 0 6.124 6.124c0.724 0.723 1.724 1.17 2.828 1.17s2.104-0.447 2.828-1.17l6.124-6.124c0.226-0.239 0.366-0.562 0.366-0.918 0-0.737-0.598-1.335-1.335-1.335-0.359 0-0.684 0.142-0.924 0.372l0-0-6.112 6.124z"></path>
</symbol>
<symbol id="icon-spoon" viewBox="0 0 32 32">
<path d="M15.453 14.108c-0.732-0.884-1.176-2.029-1.176-3.278 0-0.001 0-0.003 0-0.004v0c0-4.324 5.182-8.643 10.363-8.643 2.862 0.001 5.181 2.321 5.182 5.183v0c0 5.183-4.317 10.365-8.647 10.365-0.001 0-0.002 0-0.003 0-1.249 0-2.395-0.445-3.287-1.184l0.009 0.007-12.759 12.762c-0.308 0.287-0.723 0.463-1.179 0.463-0.956 0-1.73-0.775-1.73-1.73 0-0.456 0.176-0.871 0.464-1.18l-0.001 0.001 12.765-12.762z"></path>
</symbol>
<symbol id="icon-twitter" viewBox="0 0 32 32">
<path stroke-linejoin="round" stroke-linecap="round" stroke-miterlimit="4" stroke-width="2.4" d="M30.667 4c-1.2 0.856-2.591 1.552-4.084 2.013l-0.103 0.027c-1.101-1.262-2.712-2.054-4.508-2.054-3.299 0-5.973 2.674-5.973 5.973 0 0.029 0 0.057 0.001 0.086l-0-0.004v1.333c-0.11 0.003-0.24 0.005-0.37 0.005-2.33 0-4.529-0.561-6.469-1.554l0.080 0.037c-2.094-1.054-3.894-3.142-5.242-5.061 0 0-5.333 12.533 6.667 17.867-2.442 1.677-5.462 2.678-8.715 2.678-0.218 0-0.435-0.005-0.65-0.013l0.031 0.001c12 6.667 26.667 0 26.667-15.333 0-0.371-0.037-0.742-0.107-1.107 1.323-1.305 2.294-2.963 2.759-4.822l0.015-0.071z"></path>
</symbol>
</defs>
</svg>
