<svg aria-hidden="true" style="position: absolute; width: 0; height: 0; overflow: hidden;" version="1.1" xmlns="http://www.w3.org/2000/svg" xmlns:xlink="http://www.w3.org/1999/xlink">
<defs>
<symbol id="icon-logo" viewBox="0 0 31 32">
<path fill="#e2e2e2" style="fill: var(--color1, #e2e2e2)" d="M0.005 0h30.55v32.005h-30.55z"></path>
<path fill="#fafafa" style="fill: var(--color2, #fafafa)" d="M-244.397-33.46h545.541v10532.571h-545.541z"></path>
<path fill="#fcf1e0" style="fill: var(--color3, #fcf1e0)" d="M3.77 19.894l10.288-16.635 0.611-0.643 7.863 5.24 0.054 3.164 1.92 3.131-8.478 13.439-12.258-7.697z"></path>
<path fill="none" stroke="#fd9222" style="stroke: var(--color4, #fd9222)" stroke-linejoin="round" stroke-linecap="round" stroke-miterlimit="4" stroke-width="2.6182" d="M20.66 23.525l-13.544-8.462M10.852 8.937l13.543 8.462M10.152 25.419l11.206-18.378M25.951 14.846c-2.902-1.811-4.043-3.23-2.175-6.292l-9.19-5.742-11.206 18.377 13.544 8.462 9.024-14.805z"></path>
</symbol>
<symbol id="icon-adv-chocolate" viewBox="0 0 32 32">
<path fill="#000" style="fill: var(--color1, #000)" d="M13.823 2.413l7.528 7.537 0.080-0.080c0.154-0.151 0.366-0.244 0.599-0.244 0.227 0 0.433 0.088 0.586 0.232l-0-0 0.873 0.873c0.305 0.305 0.315 0.77 0.083 1.094l-0.004 0.007-0.143 0.192 6.161 6.161c0.55 0.55 0.55 1.43 0 1.98l-9.431 9.431c-0.55 0.55-1.43 0.55-1.98 0l-4.447-4.447c-0.155 0.195-0.393 0.319-0.66 0.319-0.233 0-0.444-0.095-0.597-0.248l-2.6-2.6c-0.151-0.154-0.244-0.366-0.244-0.599 0-0.227 0.088-0.433 0.232-0.586l-0 0 0.006-0.007 0.077-0.076-7.528-7.528c-0.55-0.55-0.55-1.43 0-1.98l9.431-9.431c0.55-0.55 1.43-0.55 1.98 0v0.001zM20.406 10.894l-1.756-1.755c-0.108-0.111-0.258-0.18-0.425-0.18s-0.317 0.069-0.425 0.18l-3.581 3.581c-0.111 0.11-0.179 0.262-0.179 0.43s0.068 0.32 0.179 0.43l1.749 1.749 0.61-0.61-1.565-1.565 3.21-3.22 1.569 1.574 0.613-0.613zM15.33 15.967l-1.754-1.754c-0.108-0.111-0.258-0.18-0.425-0.18s-0.317 0.069-0.425 0.18l-3.591 3.591c-0.24 0.23-0.24 0.61 0 0.85l1.752 1.752 0.616-0.616-1.57-1.564 3.22-3.21 1.564 1.563 0.612-0.611zM8.823 8.194l3.58 3.58c0.24 0.24 0.62 0.24 0.85-0.010l3.58-3.58c0.111-0.106 0.18-0.255 0.18-0.42 0-0 0-0 0-0v0h0.010c0-0.15-0.060-0.31-0.18-0.43l-3.58-3.58c-0.11-0.111-0.262-0.18-0.43-0.18s-0.32 0.069-0.43 0.18l-0 0-3.58 3.59c-0.24 0.23-0.24 0.61 0 0.85zM3.752 13.264l3.58 3.58c0.24 0.24 0.62 0.24 0.85 0l3.58-3.58c0.111-0.106 0.18-0.255 0.18-0.42 0-0.004-0-0.007-0-0.010v0.001h0.010c0-0.16-0.060-0.31-0.18-0.43l-3.58-3.58c-0.108-0.111-0.258-0.18-0.425-0.18s-0.317 0.069-0.425 0.18l-3.591 3.591c-0.24 0.23-0.24 0.61 0 0.85zM10.686 22.019l2.362 2.363 9.637-13.041-0.655-0.655-11.344 11.333z"></path>
<path fill="#fd9222" style="fill: var(--color2, #fd9222)" d="M13.823 2.413l7.528 7.537 0.080-0.080c0.154-0.151 0.366-0.244 0.599-0.244 0.227 0 0.433 0.088 0.586 0.232l-0-0 0.873 0.873c0.305 0.305 0.315 0.77 0.083 1.094l-0.004 0.007-0.143 0.192 6.161 6.161c0.55 0.55 0.55 1.43 0 1.98l-9.431 9.431c-0.55 0.55-1.43 0.55-1.98 0l-4.447-4.447c-0.155 0.195-0.393 0.319-0.66 0.319-0.233 0-0.444-0.095-0.597-0.248l-2.6-2.6c-0.151-0.154-0.244-0.366-0.244-0.599 0-0.227 0.088-0.433 0.232-0.586l-0 0 0.006-0.007 0.077-0.076-7.528-7.528c-0.55-0.55-0.55-1.43 0-1.98l9.431-9.431c0.55-0.55 1.43-0.55 1.98 0v0.001zM20.406 10.894l-1.756-1.755c-0.108-0.111-0.258-0.18-0.425-0.18s-0.317 0.069-0.425 0.18l-3.581 3.581c-0.111 0.11-0.179 0.262-0.179 0.43s0.068 0.32 0.179 0.43l1.749 1.749 0.61-0.61-1.565-1.565 3.21-3.22 1.569 1.574 0.613-0.613zM15.33 15.967l-1.754-1.754c-0.108-0.111-0.258-0.18-0.425-0.18s-0.317 0.069-0.425 0.18l-3.591 3.591c-0.24 0.23-0.24 0.61 0 0.85l1.752 1.752 0.616-0.616-1.57-1.564 3.22-3.21 1.564 1.563 0.612-0.611zM8.823 8.194l3.58 3.58c0.24 0.24 0.62 0.24 0.85-0.010l3.58-3.58c0.111-0.106 0.18-0.255 0.18-0.42 0-0 0-0 0-0v0h0.010c0-0.15-0.060-0.31-0.18-0.43l-3.58-3.58c-0.11-0.111-0.262-0.18-0.43-0.18s-0.32 0.069-0.43 0.18l-0 0-3.58 3.59c-0.24 0.23-0.24 0.61 0 0.85zM3.752 13.264l3.58 3.58c0.24 0.24 0.62 0.24 0.85 0l3.58-3.58c0.111-0.106 0.18-0.255 0.18-0.42 0-0.004-0-0.007-0-0.010v0.001h0.010c0-0.16-0.060-0.31-0.18-0.43l-3.58-3.58c-0.108-0.111-0.258-0.18-0.425-0.18s-0.317 0.069-0.425 0.18l-3.591 3.591c-0.24 0.23-0.24 0.61 0 0.85zM10.686 22.019l2.362 2.363 9.637-13.041-0.655-0.655-11.344 11.333z"></path>
</symbol>
<symbol id="icon-close" viewBox="0 0 32 32">
<path stroke-linejoin="round" stroke-linecap="round" stroke-miterlimit="4" stroke-width="2.2857" d="M24.012 8.004l-16.008 16.008M8.004 8.004l16.008 16.008"></path>
</symbol>
<symbol id="icon-burger" viewBox="0 0 32 32">
<path stroke-linejoin="round" stroke-linecap="round" stroke-miterlimit="4" stroke-width="2.6667" d="M2.001 16.007h28.008M2.001 6.671h28.008M2.001 25.343h28.008"></path>
</symbol>
<symbol id="icon-dollar" viewBox="0 0 32 32">
<path fill="#fd9222" style="fill: var(--color1, #fd9222)" d="M16.002 2.667c-7.334 0-13.334 6.001-13.334 13.334s6.001 13.334 13.334 13.334 13.334-6.001 13.334-13.334-6.001-13.334-13.334-13.334zM16.002 26.67c-5.868 0-10.668-4.801-10.668-10.668s4.801-10.668 10.668-10.668 10.668 4.801 10.668 10.668-4.801 10.668-10.668 10.668z"></path>
<path fill="#fd9222" style="fill: var(--color1, #fd9222)" d="M17.735 14.669h-3.466c-0.667 0-1.2-0.534-1.2-1.2s0.533-1.2 1.2-1.2h4.934c0.8 0 1.333-0.534 1.333-1.334s-0.533-1.333-1.333-1.333h-1.867v-1.2c0-0.8-0.533-1.333-1.333-1.333s-1.333 0.533-1.333 1.333v1.2h-0.4c-2.135 0.002-3.866 1.732-3.867 3.867v0c0.002 2.135 1.733 3.865 3.867 3.866h3.334c0.667 0 1.2 0.534 1.2 1.2 0 0.667-0.533 1.2-1.2 1.2h-4.934c-0.8 0-1.334 0.534-1.334 1.334s0.534 1.333 1.334 1.333h2v1.2c0 0.8 0.533 1.333 1.333 1.333s1.333-0.533 1.333-1.333v-1.2h0.4c2.135-0.002 3.866-1.732 3.867-3.867v-0c-0.002-2.135-1.733-3.865-3.867-3.866h-0z"></path>
</symbol>
<symbol id="icon-instagram" viewBox="0 0 32 32">
<path fill="none" stroke="#fff" style="stroke: var(--color1, #fff)" stroke-linejoin="round" stroke-linecap="round" stroke-miterlimit="4" stroke-width="2.1818" d="M22.67 2.667h-13.334c-0 0-0.001 0-0.001 0-3.682 0-6.667 2.985-6.667 6.667 0 0.001 0 0.001 0 0.002v-0 13.334c0 0 0 0.001 0 0.001 0 3.682 2.985 6.667 6.667 6.667 0.001 0 0.001 0 0.002 0h13.334c0 0 0.001 0 0.001 0 3.682 0 6.667-2.985 6.667-6.667 0-0 0-0.001 0-0.002v0-13.334c0-0 0-0.001 0-0.001 0-3.682-2.985-6.667-6.667-6.667-0 0-0.001 0-0.002 0h0z"></path>
<path fill="none" stroke="#fff" style="stroke: var(--color1, #fff)" stroke-linejoin="round" stroke-linecap="round" stroke-miterlimit="4" stroke-width="2.1818" d="M21.337 15.162c0.037 0.235 0.058 0.506 0.058 0.783 0 2.946-2.389 5.335-5.335 5.335-2.67 0-4.882-1.962-5.273-4.523l-0.004-0.030c-0.037-0.235-0.058-0.506-0.058-0.782 0-2.946 2.388-5.335 5.335-5.335 2.67 0 4.883 1.962 5.273 4.523l0.004 0.030z"></path>
<path fill="none" stroke="#fff" style="stroke: var(--color1, #fff)" stroke-linejoin="round" stroke-linecap="round" stroke-miterlimit="4" stroke-width="2.1818" d="M21.337 15.162c0.037 0.235 0.058 0.506 0.058 0.783 0 2.946-2.389 5.335-5.335 5.335-2.67 0-4.882-1.962-5.273-4.523l-0.004-0.030c-0.037-0.235-0.058-0.506-0.058-0.782 0-2.946 2.388-5.335 5.335-5.335 2.67 0 4.883 1.962 5.273 4.523l0.004 0.030zM23.337 8.668h0.015M23.337 8.668h0.015"></path>
</symbol>
<symbol id="icon-scroll" viewBox="0 0 32 32">
<path fill="#fd9222" style="fill: var(--color1, #fd9222)" d="M16.948 17.869c-0.241 0.243-0.576 0.394-0.946 0.394s-0.704-0.151-0.946-0.394l-0-0-6.11-6.12c-0.244-0.264-0.593-0.428-0.979-0.428-0.737 0-1.334 0.597-1.334 1.334 0 0.384 0.162 0.73 0.421 0.973l0.001 0.001 6.12 6.122c0.724 0.723 1.723 1.169 2.827 1.169s2.103-0.447 2.827-1.17l6.122-6.122c0.239-0.241 0.387-0.573 0.387-0.94 0-0.737-0.597-1.334-1.334-1.334-0.37 0-0.705 0.151-0.947 0.394l-0 0-6.107 6.12z"></path>
</symbol>
<symbol id="icon-spoon" viewBox="0 0 32 32">
<path fill="#fd9222" style="fill: var(--color1, #fd9222)" d="M15.453 14.108c-0.732-0.884-1.176-2.029-1.176-3.278 0-0.001 0-0.003 0-0.004v0c0-4.324 5.182-8.643 10.363-8.643 2.862 0.001 5.181 2.321 5.182 5.183v0c0 5.183-4.317 10.365-8.647 10.365-0.001 0-0.002 0-0.003 0-1.249 0-2.395-0.445-3.287-1.184l0.009 0.007-12.759 12.762c-0.308 0.287-0.723 0.463-1.179 0.463-0.956 0-1.73-0.775-1.73-1.73 0-0.456 0.176-0.871 0.464-1.18l-0.001 0.001 12.765-12.762z"></path>
</symbol>
<symbol id="icon-twitter" viewBox="0 0 32 32">
<path fill="none" stroke="#fff" style="stroke: var(--color1, #fff)" stroke-linejoin="round" stroke-linecap="round" stroke-miterlimit="4" stroke-width="2.1818" d="M30.671 4.001c-1.2 0.856-2.591 1.551-4.084 2.012l-0.103 0.027c-1.101-1.261-2.712-2.053-4.507-2.053-3.3 0-5.975 2.675-5.975 5.975 0 0.028 0 0.055 0.001 0.083l-0-0.004v1.334c-0.11 0.003-0.239 0.005-0.369 0.005-2.331 0-4.53-0.561-6.472-1.555l0.080 0.037c-2.093-1.053-4.258-3.563-5.605-5.482 0 0-4.971 12.956 7.031 18.289-2.443 1.678-5.464 2.68-8.719 2.68-0.216 0-0.431-0.004-0.645-0.013l0.031 0.001c12.002 6.667 26.67 0 26.67-15.336 0-0.371-0.036-0.742-0.106-1.106 1.323-1.305 2.293-2.965 2.758-4.824l0.015-0.071z"></path>
</symbol>
<symbol id="icon-ukr" viewBox="0 0 40 32">
<path fill="#ffd700" style="fill: var(--color1, #ffd700)" d="M40.209 0.495h-39.902v29.695h39.902v-29.695z"></path>
<path fill="#0057b7" style="fill: var(--color2, #0057b7)" d="M0.307 0.495h39.902v14.847h-39.902v-14.847z"></path>
</symbol>
<symbol id="icon-mastercard" viewBox="0 0 50 32">
<path fill="#ed0006" style="fill: var(--color3, #ed0006)" d="M25.143 28.078c-2.656 2.194-6.102 3.518-9.867 3.518-8.401 0-15.211-6.593-15.211-14.726s6.81-14.726 15.211-14.726c3.765 0 7.21 1.324 9.867 3.518 2.656-2.194 6.102-3.518 9.866-3.518 8.401 0 15.211 6.593 15.211 14.726s-6.81 14.726-15.211 14.726c-3.765 0-7.21-1.324-9.867-3.518z"></path>
<path fill="#f9a000" style="fill: var(--color4, #f9a000)" d="M25.143 28.078c3.271-2.701 5.344-6.72 5.344-11.208s-2.074-8.507-5.344-11.208c2.656-2.194 6.102-3.518 9.866-3.518 8.401 0 15.211 6.593 15.211 14.726s-6.81 14.726-15.211 14.726c-3.765 0-7.21-1.324-9.867-3.518z"></path>
<path fill="#ff5e00" style="fill: var(--color5, #ff5e00)" d="M25.143 28.078c3.271-2.701 5.344-6.72 5.344-11.208s-2.074-8.507-5.344-11.208c-3.271 2.701-5.344 6.72-5.344 11.208s2.074 8.507 5.344 11.208z"></path>
</symbol>
</defs>
</svg>
